<svg width="47" height="47" viewBox="0 0 47 47" fill="none" xmlns="http://www.w3.org/2000/svg">
<circle cx="23.5" cy="23.5" r="23.5" fill="#F09D30"/>
<path d="M34.2942 16.1075C34.8342 14.6137 33.3867 13.1662 31.8929 13.7075L13.6367 20.31C12.1379 20.8525 11.9567 22.8975 13.3354 23.6962L19.1629 27.07L24.3667 21.8662C24.6024 21.6385 24.9182 21.5126 25.2459 21.5154C25.5737 21.5182 25.8872 21.6497 26.1189 21.8815C26.3507 22.1132 26.4822 22.4267 26.485 22.7545C26.4879 23.0822 26.3619 23.398 26.1342 23.6337L20.9304 28.8375L24.3054 34.665C25.1029 36.0437 27.1479 35.8612 27.6904 34.3637L34.2942 16.1075Z" fill="white"/>
</svg>
